<?xml version="1.0" encoding="utf-8"?>
<!-- Generator: Adobe Illustrator 27.7.0, SVG Export Plug-In . SVG Version: 6.00 Build 0)  -->
<svg version="1.1" id="Layer_1" xmlns="http://www.w3.org/2000/svg" xmlns:xlink="http://www.w3.org/1999/xlink" x="0px" y="0px"
	 viewBox="0 0 1023 1023" style="enable-background:new 0 0 1023 1023;" xml:space="preserve">
<style type="text/css">
	.st0{filter:url(#Adobe_OpacityMaskFilter);}
	.st1{fill:#FFFFFF;}
	.st2{mask:url(#qrmask_00000160872255407109175300000015824236793173379471_);}
	.st3{fill:#101725;}
	.st4{fill:#66BC53;}
	.st5{fill:url(#SVGID_1_);}
	.st6{fill:#7058A4;}
	.st7{fill:none;}
</style>
<defs>
	<filter id="Adobe_OpacityMaskFilter" filterUnits="userSpaceOnUse" x="0" y="0" width="1023" height="1023">
		<feColorMatrix  type="matrix" values="1 0 0 0 0  0 1 0 0 0  0 0 1 0 0  0 0 0 1 0"/>
	</filter>
</defs>
<mask maskUnits="userSpaceOnUse" x="0" y="0" width="1023" height="1023" id="qrmask_00000160872255407109175300000015824236793173379471_">
	<g class="st0">
		<g>
			<g transform="translate(310,62) scale(5.3216666666667)">
				<rect x="0" y="0" class="st1" width="6" height="6"/>
			</g>
			<g transform="translate(372,62) scale(5.3216666666667)">
				<rect x="0" y="0" class="st1" width="6" height="6"/>
			</g>
			<g transform="translate(403,62) scale(5.3216666666667)">
				<rect x="0" y="0" class="st1" width="6" height="6"/>
			</g>
			<g transform="translate(434,62) scale(5.3216666666667)">
				<rect x="0" y="0" class="st1" width="6" height="6"/>
			</g>
			<g transform="translate(496,62) scale(5.3216666666667)">
				<rect x="0" y="0" class="st1" width="6" height="6"/>
			</g>
			<g transform="translate(558,62) scale(5.3216666666667)">
				<rect x="0" y="0" class="st1" width="6" height="6"/>
			</g>
			<g transform="translate(589,62) scale(5.3216666666667)">
				<rect x="0" y="0" class="st1" width="6" height="6"/>
			</g>
			<g transform="translate(620,62) scale(5.3216666666667)">
				<rect x="0" y="0" class="st1" width="6" height="6"/>
			</g>
			<g transform="translate(682,62) scale(5.3216666666667)">
				<rect x="0" y="0" class="st1" width="6" height="6"/>
			</g>
			<g transform="translate(310,93) scale(5.3216666666667)">
				<rect x="0" y="0" class="st1" width="6" height="6"/>
			</g>
			<g transform="translate(341,93) scale(5.3216666666667)">
				<rect x="0" y="0" class="st1" width="6" height="6"/>
			</g>
			<g transform="translate(372,93) scale(5.3216666666667)">
				<rect x="0" y="0" class="st1" width="6" height="6"/>
			</g>
			<g transform="translate(434,93) scale(5.3216666666667)">
				<rect x="0" y="0" class="st1" width="6" height="6"/>
			</g>
			<g transform="translate(496,93) scale(5.3216666666667)">
				<rect x="0" y="0" class="st1" width="6" height="6"/>
			</g>
			<g transform="translate(527,93) scale(5.3216666666667)">
				<rect x="0" y="0" class="st1" width="6" height="6"/>
			</g>
			<g transform="translate(558,93) scale(5.3216666666667)">
				<rect x="0" y="0" class="st1" width="6" height="6"/>
			</g>
			<g transform="translate(589,93) scale(5.3216666666667)">
				<rect x="0" y="0" class="st1" width="6" height="6"/>
			</g>
			<g transform="translate(651,93) scale(5.3216666666667)">
				<rect x="0" y="0" class="st1" width="6" height="6"/>
			</g>
			<g transform="translate(310,124) scale(5.3216666666667)">
				<rect x="0" y="0" class="st1" width="6" height="6"/>
			</g>
			<g transform="translate(403,124) scale(5.3216666666667)">
				<rect x="0" y="0" class="st1" width="6" height="6"/>
			</g>
			<g transform="translate(434,124) scale(5.3216666666667)">
				<rect x="0" y="0" class="st1" width="6" height="6"/>
			</g>
			<g transform="translate(620,124) scale(5.3216666666667)">
				<rect x="0" y="0" class="st1" width="6" height="6"/>
			</g>
			<g transform="translate(651,124) scale(5.3216666666667)">
				<rect x="0" y="0" class="st1" width="6" height="6"/>
			</g>
			<g transform="translate(682,124) scale(5.3216666666667)">
				<rect x="0" y="0" class="st1" width="6" height="6"/>
			</g>
			<g transform="translate(372,155) scale(5.3216666666667)">
				<rect x="0" y="0" class="st1" width="6" height="6"/>
			</g>
			<g transform="translate(403,155) scale(5.3216666666667)">
				<rect x="0" y="0" class="st1" width="6" height="6"/>
			</g>
			<g transform="translate(465,155) scale(5.3216666666667)">
				<rect x="0" y="0" class="st1" width="6" height="6"/>
			</g>
			<g transform="translate(496,155) scale(5.3216666666667)">
				<rect x="0" y="0" class="st1" width="6" height="6"/>
			</g>
			<g transform="translate(527,155) scale(5.3216666666667)">
				<rect x="0" y="0" class="st1" width="6" height="6"/>
			</g>
			<g transform="translate(558,155) scale(5.3216666666667)">
				<rect x="0" y="0" class="st1" width="6" height="6"/>
			</g>
			<g transform="translate(589,155) scale(5.3216666666667)">
				<rect x="0" y="0" class="st1" width="6" height="6"/>
			</g>
			<g transform="translate(651,155) scale(5.3216666666667)">
				<rect x="0" y="0" class="st1" width="6" height="6"/>
			</g>
			<g transform="translate(372,186) scale(5.3216666666667)">
				<rect x="0" y="0" class="st1" width="6" height="6"/>
			</g>
			<g transform="translate(403,186) scale(5.3216666666667)">
				<rect x="0" y="0" class="st1" width="6" height="6"/>
			</g>
			<g transform="translate(434,186) scale(5.3216666666667)">
				<rect x="0" y="0" class="st1" width="6" height="6"/>
			</g>
			<g transform="translate(465,186) scale(5.3216666666667)">
				<rect x="0" y="0" class="st1" width="6" height="6"/>
			</g>
			<g transform="translate(558,186) scale(5.3216666666667)">
				<rect x="0" y="0" class="st1" width="6" height="6"/>
			</g>
			<g transform="translate(620,186) scale(5.3216666666667)">
				<rect x="0" y="0" class="st1" width="6" height="6"/>
			</g>
			<g transform="translate(651,186) scale(5.3216666666667)">
				<rect x="0" y="0" class="st1" width="6" height="6"/>
			</g>
			<g transform="translate(310,217) scale(5.3216666666667)">
				<rect x="0" y="0" class="st1" width="6" height="6"/>
			</g>
			<g transform="translate(372,217) scale(5.3216666666667)">
				<rect x="0" y="0" class="st1" width="6" height="6"/>
			</g>
			<g transform="translate(434,217) scale(5.3216666666667)">
				<rect x="0" y="0" class="st1" width="6" height="6"/>
			</g>
			<g transform="translate(527,217) scale(5.3216666666667)">
				<rect x="0" y="0" class="st1" width="6" height="6"/>
			</g>
			<g transform="translate(558,217) scale(5.3216666666667)">
				<rect x="0" y="0" class="st1" width="6" height="6"/>
			</g>
			<g transform="translate(620,217) scale(5.3216666666667)">
				<rect x="0" y="0" class="st1" width="6" height="6"/>
			</g>
			<g transform="translate(310,248) scale(5.3216666666667)">
				<rect x="0" y="0" class="st1" width="6" height="6"/>
			</g>
			<g transform="translate(372,248) scale(5.3216666666667)">
				<rect x="0" y="0" class="st1" width="6" height="6"/>
			</g>
			<g transform="translate(434,248) scale(5.3216666666667)">
				<rect x="0" y="0" class="st1" width="6" height="6"/>
			</g>
			<g transform="translate(496,248) scale(5.3216666666667)">
				<rect x="0" y="0" class="st1" width="6" height="6"/>
			</g>
			<g transform="translate(558,248) scale(5.3216666666667)">
				<rect x="0" y="0" class="st1" width="6" height="6"/>
			</g>
			<g transform="translate(620,248) scale(5.3216666666667)">
				<rect x="0" y="0" class="st1" width="6" height="6"/>
			</g>
			<g transform="translate(682,248) scale(5.3216666666667)">
				<rect x="0" y="0" class="st1" width="6" height="6"/>
			</g>
			<g transform="translate(310,279) scale(5.3216666666667)">
				<rect x="0" y="0" class="st1" width="6" height="6"/>
			</g>
			<g transform="translate(341,279) scale(5.3216666666667)">
				<rect x="0" y="0" class="st1" width="6" height="6"/>
			</g>
			<g transform="translate(372,279) scale(5.3216666666667)">
				<rect x="0" y="0" class="st1" width="6" height="6"/>
			</g>
			<g transform="translate(403,279) scale(5.3216666666667)">
				<rect x="0" y="0" class="st1" width="6" height="6"/>
			</g>
			<g transform="translate(434,279) scale(5.3216666666667)">
				<rect x="0" y="0" class="st1" width="6" height="6"/>
			</g>
			<g transform="translate(465,279) scale(5.3216666666667)">
				<rect x="0" y="0" class="st1" width="6" height="6"/>
			</g>
			<g transform="translate(527,279) scale(5.3216666666667)">
				<rect x="0" y="0" class="st1" width="6" height="6"/>
			</g>
			<g transform="translate(558,279) scale(5.3216666666667)">
				<rect x="0" y="0" class="st1" width="6" height="6"/>
			</g>
			<g transform="translate(651,279) scale(5.3216666666667)">
				<rect x="0" y="0" class="st1" width="6" height="6"/>
			</g>
			<g transform="translate(124,310) scale(5.3216666666667)">
				<rect x="0" y="0" class="st1" width="6" height="6"/>
			</g>
			<g transform="translate(155,310) scale(5.3216666666667)">
				<rect x="0" y="0" class="st1" width="6" height="6"/>
			</g>
			<g transform="translate(186,310) scale(5.3216666666667)">
				<rect x="0" y="0" class="st1" width="6" height="6"/>
			</g>
			<g transform="translate(248,310) scale(5.3216666666667)">
				<rect x="0" y="0" class="st1" width="6" height="6"/>
			</g>
			<g transform="translate(310,310) scale(5.3216666666667)">
				<rect x="0" y="0" class="st1" width="6" height="6"/>
			</g>
			<g transform="translate(372,310) scale(5.3216666666667)">
				<rect x="0" y="0" class="st1" width="6" height="6"/>
			</g>
			<g transform="translate(434,310) scale(5.3216666666667)">
				<rect x="0" y="0" class="st1" width="6" height="6"/>
			</g>
			<g transform="translate(496,310) scale(5.3216666666667)">
				<rect x="0" y="0" class="st1" width="6" height="6"/>
			</g>
			<g transform="translate(527,310) scale(5.3216666666667)">
				<rect x="0" y="0" class="st1" width="6" height="6"/>
			</g>
			<g transform="translate(558,310) scale(5.3216666666667)">
				<rect x="0" y="0" class="st1" width="6" height="6"/>
			</g>
			<g transform="translate(620,310) scale(5.3216666666667)">
				<rect x="0" y="0" class="st1" width="6" height="6"/>
			</g>
			<g transform="translate(713,310) scale(5.3216666666667)">
				<rect x="0" y="0" class="st1" width="6" height="6"/>
			</g>
			<g transform="translate(744,310) scale(5.3216666666667)">
				<rect x="0" y="0" class="st1" width="6" height="6"/>
			</g>
			<g transform="translate(775,310) scale(5.3216666666667)">
				<rect x="0" y="0" class="st1" width="6" height="6"/>
			</g>
			<g transform="translate(868,310) scale(5.3216666666667)">
				<rect x="0" y="0" class="st1" width="6" height="6"/>
			</g>
			<g transform="translate(899,310) scale(5.3216666666667)">
				<rect x="0" y="0" class="st1" width="6" height="6"/>
			</g>
			<g transform="translate(930,310) scale(5.3216666666667)">
				<rect x="0" y="0" class="st1" width="6" height="6"/>
			</g>
			<g transform="translate(341,341) scale(5.3216666666667)">
				<rect x="0" y="0" class="st1" width="6" height="6"/>
			</g>
			<g transform="translate(372,341) scale(5.3216666666667)">
				<rect x="0" y="0" class="st1" width="6" height="6"/>
			</g>
			<g transform="translate(403,341) scale(5.3216666666667)">
				<rect x="0" y="0" class="st1" width="6" height="6"/>
			</g>
			<g transform="translate(434,341) scale(5.3216666666667)">
				<rect x="0" y="0" class="st1" width="6" height="6"/>
			</g>
			<g transform="translate(496,341) scale(5.3216666666667)">
				<rect x="0" y="0" class="st1" width="6" height="6"/>
			</g>
			<g transform="translate(527,341) scale(5.3216666666667)">
				<rect x="0" y="0" class="st1" width="6" height="6"/>
			</g>
			<g transform="translate(558,341) scale(5.3216666666667)">
				<rect x="0" y="0" class="st1" width="6" height="6"/>
			</g>
			<g transform="translate(589,341) scale(5.3216666666667)">
				<rect x="0" y="0" class="st1" width="6" height="6"/>
			</g>
			<g transform="translate(744,341) scale(5.3216666666667)">
				<rect x="0" y="0" class="st1" width="6" height="6"/>
			</g>
			<g transform="translate(806,341) scale(5.3216666666667)">
				<rect x="0" y="0" class="st1" width="6" height="6"/>
			</g>
			<g transform="translate(837,341) scale(5.3216666666667)">
				<rect x="0" y="0" class="st1" width="6" height="6"/>
			</g>
			<g transform="translate(868,341) scale(5.3216666666667)">
				<rect x="0" y="0" class="st1" width="6" height="6"/>
			</g>
			<g transform="translate(930,341) scale(5.3216666666667)">
				<rect x="0" y="0" class="st1" width="6" height="6"/>
			</g>
			<g transform="translate(93,372) scale(5.3216666666667)">
				<rect x="0" y="0" class="st1" width="6" height="6"/>
			</g>
			<g transform="translate(155,372) scale(5.3216666666667)">
				<rect x="0" y="0" class="st1" width="6" height="6"/>
			</g>
			<g transform="translate(186,372) scale(5.3216666666667)">
				<rect x="0" y="0" class="st1" width="6" height="6"/>
			</g>
			<g transform="translate(217,372) scale(5.3216666666667)">
				<rect x="0" y="0" class="st1" width="6" height="6"/>
			</g>
			<g transform="translate(248,372) scale(5.3216666666667)">
				<rect x="0" y="0" class="st1" width="6" height="6"/>
			</g>
			<g transform="translate(279,372) scale(5.3216666666667)">
				<rect x="0" y="0" class="st1" width="6" height="6"/>
			</g>
			<g transform="translate(713,372) scale(5.3216666666667)">
				<rect x="0" y="0" class="st1" width="6" height="6"/>
			</g>
			<g transform="translate(744,372) scale(5.3216666666667)">
				<rect x="0" y="0" class="st1" width="6" height="6"/>
			</g>
			<g transform="translate(775,372) scale(5.3216666666667)">
				<rect x="0" y="0" class="st1" width="6" height="6"/>
			</g>
			<g transform="translate(806,372) scale(5.3216666666667)">
				<rect x="0" y="0" class="st1" width="6" height="6"/>
			</g>
			<g transform="translate(868,372) scale(5.3216666666667)">
				<rect x="0" y="0" class="st1" width="6" height="6"/>
			</g>
			<g transform="translate(124,403) scale(5.3216666666667)">
				<rect x="0" y="0" class="st1" width="6" height="6"/>
			</g>
			<g transform="translate(155,403) scale(5.3216666666667)">
				<rect x="0" y="0" class="st1" width="6" height="6"/>
			</g>
			<g transform="translate(279,403) scale(5.3216666666667)">
				<rect x="0" y="0" class="st1" width="6" height="6"/>
			</g>
			<g transform="translate(341,403) scale(5.3216666666667)">
				<rect x="0" y="0" class="st1" width="6" height="6"/>
			</g>
			<g transform="translate(682,403) scale(5.3216666666667)">
				<rect x="0" y="0" class="st1" width="6" height="6"/>
			</g>
			<g transform="translate(713,403) scale(5.3216666666667)">
				<rect x="0" y="0" class="st1" width="6" height="6"/>
			</g>
			<g transform="translate(744,403) scale(5.3216666666667)">
				<rect x="0" y="0" class="st1" width="6" height="6"/>
			</g>
			<g transform="translate(775,403) scale(5.3216666666667)">
				<rect x="0" y="0" class="st1" width="6" height="6"/>
			</g>
			<g transform="translate(806,403) scale(5.3216666666667)">
				<rect x="0" y="0" class="st1" width="6" height="6"/>
			</g>
			<g transform="translate(837,403) scale(5.3216666666667)">
				<rect x="0" y="0" class="st1" width="6" height="6"/>
			</g>
			<g transform="translate(899,403) scale(5.3216666666667)">
				<rect x="0" y="0" class="st1" width="6" height="6"/>
			</g>
			<g transform="translate(93,434) scale(5.3216666666667)">
				<rect x="0" y="0" class="st1" width="6" height="6"/>
			</g>
			<g transform="translate(124,434) scale(5.3216666666667)">
				<rect x="0" y="0" class="st1" width="6" height="6"/>
			</g>
			<g transform="translate(155,434) scale(5.3216666666667)">
				<rect x="0" y="0" class="st1" width="6" height="6"/>
			</g>
			<g transform="translate(186,434) scale(5.3216666666667)">
				<rect x="0" y="0" class="st1" width="6" height="6"/>
			</g>
			<g transform="translate(217,434) scale(5.3216666666667)">
				<rect x="0" y="0" class="st1" width="6" height="6"/>
			</g>
			<g transform="translate(248,434) scale(5.3216666666667)">
				<rect x="0" y="0" class="st1" width="6" height="6"/>
			</g>
			<g transform="translate(310,434) scale(5.3216666666667)">
				<rect x="0" y="0" class="st1" width="6" height="6"/>
			</g>
			<g transform="translate(651,434) scale(5.3216666666667)">
				<rect x="0" y="0" class="st1" width="6" height="6"/>
			</g>
			<g transform="translate(682,434) scale(5.3216666666667)">
				<rect x="0" y="0" class="st1" width="6" height="6"/>
			</g>
			<g transform="translate(713,434) scale(5.3216666666667)">
				<rect x="0" y="0" class="st1" width="6" height="6"/>
			</g>
			<g transform="translate(775,434) scale(5.3216666666667)">
				<rect x="0" y="0" class="st1" width="6" height="6"/>
			</g>
			<g transform="translate(868,434) scale(5.3216666666667)">
				<rect x="0" y="0" class="st1" width="6" height="6"/>
			</g>
			<g transform="translate(899,434) scale(5.3216666666667)">
				<rect x="0" y="0" class="st1" width="6" height="6"/>
			</g>
			<g transform="translate(930,434) scale(5.3216666666667)">
				<rect x="0" y="0" class="st1" width="6" height="6"/>
			</g>
			<g transform="translate(62,465) scale(5.3216666666667)">
				<rect x="0" y="0" class="st1" width="6" height="6"/>
			</g>
			<g transform="translate(124,465) scale(5.3216666666667)">
				<rect x="0" y="0" class="st1" width="6" height="6"/>
			</g>
			<g transform="translate(155,465) scale(5.3216666666667)">
				<rect x="0" y="0" class="st1" width="6" height="6"/>
			</g>
			<g transform="translate(186,465) scale(5.3216666666667)">
				<rect x="0" y="0" class="st1" width="6" height="6"/>
			</g>
			<g transform="translate(217,465) scale(5.3216666666667)">
				<rect x="0" y="0" class="st1" width="6" height="6"/>
			</g>
			<g transform="translate(279,465) scale(5.3216666666667)">
				<rect x="0" y="0" class="st1" width="6" height="6"/>
			</g>
			<g transform="translate(651,465) scale(5.3216666666667)">
				<rect x="0" y="0" class="st1" width="6" height="6"/>
			</g>
			<g transform="translate(682,465) scale(5.3216666666667)">
				<rect x="0" y="0" class="st1" width="6" height="6"/>
			</g>
			<g transform="translate(713,465) scale(5.3216666666667)">
				<rect x="0" y="0" class="st1" width="6" height="6"/>
			</g>
			<g transform="translate(744,465) scale(5.3216666666667)">
				<rect x="0" y="0" class="st1" width="6" height="6"/>
			</g>
			<g transform="translate(806,465) scale(5.3216666666667)">
				<rect x="0" y="0" class="st1" width="6" height="6"/>
			</g>
			<g transform="translate(837,465) scale(5.3216666666667)">
				<rect x="0" y="0" class="st1" width="6" height="6"/>
			</g>
			<g transform="translate(899,465) scale(5.3216666666667)">
				<rect x="0" y="0" class="st1" width="6" height="6"/>
			</g>
			<g transform="translate(930,465) scale(5.3216666666667)">
				<rect x="0" y="0" class="st1" width="6" height="6"/>
			</g>
			<g transform="translate(62,496) scale(5.3216666666667)">
				<rect x="0" y="0" class="st1" width="6" height="6"/>
			</g>
			<g transform="translate(186,496) scale(5.3216666666667)">
				<rect x="0" y="0" class="st1" width="6" height="6"/>
			</g>
			<g transform="translate(248,496) scale(5.3216666666667)">
				<rect x="0" y="0" class="st1" width="6" height="6"/>
			</g>
			<g transform="translate(310,496) scale(5.3216666666667)">
				<rect x="0" y="0" class="st1" width="6" height="6"/>
			</g>
			<g transform="translate(682,496) scale(5.3216666666667)">
				<rect x="0" y="0" class="st1" width="6" height="6"/>
			</g>
			<g transform="translate(775,496) scale(5.3216666666667)">
				<rect x="0" y="0" class="st1" width="6" height="6"/>
			</g>
			<g transform="translate(62,527) scale(5.3216666666667)">
				<rect x="0" y="0" class="st1" width="6" height="6"/>
			</g>
			<g transform="translate(93,527) scale(5.3216666666667)">
				<rect x="0" y="0" class="st1" width="6" height="6"/>
			</g>
			<g transform="translate(124,527) scale(5.3216666666667)">
				<rect x="0" y="0" class="st1" width="6" height="6"/>
			</g>
			<g transform="translate(217,527) scale(5.3216666666667)">
				<rect x="0" y="0" class="st1" width="6" height="6"/>
			</g>
			<g transform="translate(279,527) scale(5.3216666666667)">
				<rect x="0" y="0" class="st1" width="6" height="6"/>
			</g>
			<g transform="translate(310,527) scale(5.3216666666667)">
				<rect x="0" y="0" class="st1" width="6" height="6"/>
			</g>
			<g transform="translate(341,527) scale(5.3216666666667)">
				<rect x="0" y="0" class="st1" width="6" height="6"/>
			</g>
			<g transform="translate(713,527) scale(5.3216666666667)">
				<rect x="0" y="0" class="st1" width="6" height="6"/>
			</g>
			<g transform="translate(744,527) scale(5.3216666666667)">
				<rect x="0" y="0" class="st1" width="6" height="6"/>
			</g>
			<g transform="translate(806,527) scale(5.3216666666667)">
				<rect x="0" y="0" class="st1" width="6" height="6"/>
			</g>
			<g transform="translate(837,527) scale(5.3216666666667)">
				<rect x="0" y="0" class="st1" width="6" height="6"/>
			</g>
			<g transform="translate(93,558) scale(5.3216666666667)">
				<rect x="0" y="0" class="st1" width="6" height="6"/>
			</g>
			<g transform="translate(124,558) scale(5.3216666666667)">
				<rect x="0" y="0" class="st1" width="6" height="6"/>
			</g>
			<g transform="translate(155,558) scale(5.3216666666667)">
				<rect x="0" y="0" class="st1" width="6" height="6"/>
			</g>
			<g transform="translate(186,558) scale(5.3216666666667)">
				<rect x="0" y="0" class="st1" width="6" height="6"/>
			</g>
			<g transform="translate(248,558) scale(5.3216666666667)">
				<rect x="0" y="0" class="st1" width="6" height="6"/>
			</g>
			<g transform="translate(279,558) scale(5.3216666666667)">
				<rect x="0" y="0" class="st1" width="6" height="6"/>
			</g>
			<g transform="translate(341,558) scale(5.3216666666667)">
				<rect x="0" y="0" class="st1" width="6" height="6"/>
			</g>
			<g transform="translate(775,558) scale(5.3216666666667)">
				<rect x="0" y="0" class="st1" width="6" height="6"/>
			</g>
			<g transform="translate(837,558) scale(5.3216666666667)">
				<rect x="0" y="0" class="st1" width="6" height="6"/>
			</g>
			<g transform="translate(868,558) scale(5.3216666666667)">
				<rect x="0" y="0" class="st1" width="6" height="6"/>
			</g>
			<g transform="translate(899,558) scale(5.3216666666667)">
				<rect x="0" y="0" class="st1" width="6" height="6"/>
			</g>
			<g transform="translate(930,558) scale(5.3216666666667)">
				<rect x="0" y="0" class="st1" width="6" height="6"/>
			</g>
			<g transform="translate(62,589) scale(5.3216666666667)">
				<rect x="0" y="0" class="st1" width="6" height="6"/>
			</g>
			<g transform="translate(124,589) scale(5.3216666666667)">
				<rect x="0" y="0" class="st1" width="6" height="6"/>
			</g>
			<g transform="translate(186,589) scale(5.3216666666667)">
				<rect x="0" y="0" class="st1" width="6" height="6"/>
			</g>
			<g transform="translate(310,589) scale(5.3216666666667)">
				<rect x="0" y="0" class="st1" width="6" height="6"/>
			</g>
			<g transform="translate(651,589) scale(5.3216666666667)">
				<rect x="0" y="0" class="st1" width="6" height="6"/>
			</g>
			<g transform="translate(682,589) scale(5.3216666666667)">
				<rect x="0" y="0" class="st1" width="6" height="6"/>
			</g>
			<g transform="translate(713,589) scale(5.3216666666667)">
				<rect x="0" y="0" class="st1" width="6" height="6"/>
			</g>
			<g transform="translate(744,589) scale(5.3216666666667)">
				<rect x="0" y="0" class="st1" width="6" height="6"/>
			</g>
			<g transform="translate(806,589) scale(5.3216666666667)">
				<rect x="0" y="0" class="st1" width="6" height="6"/>
			</g>
			<g transform="translate(868,589) scale(5.3216666666667)">
				<rect x="0" y="0" class="st1" width="6" height="6"/>
			</g>
			<g transform="translate(899,589) scale(5.3216666666667)">
				<rect x="0" y="0" class="st1" width="6" height="6"/>
			</g>
			<g transform="translate(930,589) scale(5.3216666666667)">
				<rect x="0" y="0" class="st1" width="6" height="6"/>
			</g>
			<g transform="translate(62,620) scale(5.3216666666667)">
				<rect x="0" y="0" class="st1" width="6" height="6"/>
			</g>
			<g transform="translate(186,620) scale(5.3216666666667)">
				<rect x="0" y="0" class="st1" width="6" height="6"/>
			</g>
			<g transform="translate(217,620) scale(5.3216666666667)">
				<rect x="0" y="0" class="st1" width="6" height="6"/>
			</g>
			<g transform="translate(248,620) scale(5.3216666666667)">
				<rect x="0" y="0" class="st1" width="6" height="6"/>
			</g>
			<g transform="translate(279,620) scale(5.3216666666667)">
				<rect x="0" y="0" class="st1" width="6" height="6"/>
			</g>
			<g transform="translate(341,620) scale(5.3216666666667)">
				<rect x="0" y="0" class="st1" width="6" height="6"/>
			</g>
			<g transform="translate(744,620) scale(5.3216666666667)">
				<rect x="0" y="0" class="st1" width="6" height="6"/>
			</g>
			<g transform="translate(775,620) scale(5.3216666666667)">
				<rect x="0" y="0" class="st1" width="6" height="6"/>
			</g>
			<g transform="translate(806,620) scale(5.3216666666667)">
				<rect x="0" y="0" class="st1" width="6" height="6"/>
			</g>
			<g transform="translate(837,620) scale(5.3216666666667)">
				<rect x="0" y="0" class="st1" width="6" height="6"/>
			</g>
			<g transform="translate(868,620) scale(5.3216666666667)">
				<rect x="0" y="0" class="st1" width="6" height="6"/>
			</g>
			<g transform="translate(62,651) scale(5.3216666666667)">
				<rect x="0" y="0" class="st1" width="6" height="6"/>
			</g>
			<g transform="translate(186,651) scale(5.3216666666667)">
				<rect x="0" y="0" class="st1" width="6" height="6"/>
			</g>
			<g transform="translate(279,651) scale(5.3216666666667)">
				<rect x="0" y="0" class="st1" width="6" height="6"/>
			</g>
			<g transform="translate(372,651) scale(5.3216666666667)">
				<rect x="0" y="0" class="st1" width="6" height="6"/>
			</g>
			<g transform="translate(403,651) scale(5.3216666666667)">
				<rect x="0" y="0" class="st1" width="6" height="6"/>
			</g>
			<g transform="translate(465,651) scale(5.3216666666667)">
				<rect x="0" y="0" class="st1" width="6" height="6"/>
			</g>
			<g transform="translate(496,651) scale(5.3216666666667)">
				<rect x="0" y="0" class="st1" width="6" height="6"/>
			</g>
			<g transform="translate(527,651) scale(5.3216666666667)">
				<rect x="0" y="0" class="st1" width="6" height="6"/>
			</g>
			<g transform="translate(744,651) scale(5.3216666666667)">
				<rect x="0" y="0" class="st1" width="6" height="6"/>
			</g>
			<g transform="translate(775,651) scale(5.3216666666667)">
				<rect x="0" y="0" class="st1" width="6" height="6"/>
			</g>
			<g transform="translate(806,651) scale(5.3216666666667)">
				<rect x="0" y="0" class="st1" width="6" height="6"/>
			</g>
			<g transform="translate(899,651) scale(5.3216666666667)">
				<rect x="0" y="0" class="st1" width="6" height="6"/>
			</g>
			<g transform="translate(930,651) scale(5.3216666666667)">
				<rect x="0" y="0" class="st1" width="6" height="6"/>
			</g>
			<g transform="translate(62,682) scale(5.3216666666667)">
				<rect x="0" y="0" class="st1" width="6" height="6"/>
			</g>
			<g transform="translate(124,682) scale(5.3216666666667)">
				<rect x="0" y="0" class="st1" width="6" height="6"/>
			</g>
			<g transform="translate(155,682) scale(5.3216666666667)">
				<rect x="0" y="0" class="st1" width="6" height="6"/>
			</g>
			<g transform="translate(217,682) scale(5.3216666666667)">
				<rect x="0" y="0" class="st1" width="6" height="6"/>
			</g>
			<g transform="translate(248,682) scale(5.3216666666667)">
				<rect x="0" y="0" class="st1" width="6" height="6"/>
			</g>
			<g transform="translate(310,682) scale(5.3216666666667)">
				<rect x="0" y="0" class="st1" width="6" height="6"/>
			</g>
			<g transform="translate(434,682) scale(5.3216666666667)">
				<rect x="0" y="0" class="st1" width="6" height="6"/>
			</g>
			<g transform="translate(496,682) scale(5.3216666666667)">
				<rect x="0" y="0" class="st1" width="6" height="6"/>
			</g>
			<g transform="translate(558,682) scale(5.3216666666667)">
				<rect x="0" y="0" class="st1" width="6" height="6"/>
			</g>
			<g transform="translate(651,682) scale(5.3216666666667)">
				<rect x="0" y="0" class="st1" width="6" height="6"/>
			</g>
			<g transform="translate(682,682) scale(5.3216666666667)">
				<rect x="0" y="0" class="st1" width="6" height="6"/>
			</g>
			<g transform="translate(713,682) scale(5.3216666666667)">
				<rect x="0" y="0" class="st1" width="6" height="6"/>
			</g>
			<g transform="translate(744,682) scale(5.3216666666667)">
				<rect x="0" y="0" class="st1" width="6" height="6"/>
			</g>
			<g transform="translate(775,682) scale(5.3216666666667)">
				<rect x="0" y="0" class="st1" width="6" height="6"/>
			</g>
			<g transform="translate(806,682) scale(5.3216666666667)">
				<rect x="0" y="0" class="st1" width="6" height="6"/>
			</g>
			<g transform="translate(868,682) scale(5.3216666666667)">
				<rect x="0" y="0" class="st1" width="6" height="6"/>
			</g>
			<g transform="translate(310,713) scale(5.3216666666667)">
				<rect x="0" y="0" class="st1" width="6" height="6"/>
			</g>
			<g transform="translate(372,713) scale(5.3216666666667)">
				<rect x="0" y="0" class="st1" width="6" height="6"/>
			</g>
			<g transform="translate(403,713) scale(5.3216666666667)">
				<rect x="0" y="0" class="st1" width="6" height="6"/>
			</g>
			<g transform="translate(434,713) scale(5.3216666666667)">
				<rect x="0" y="0" class="st1" width="6" height="6"/>
			</g>
			<g transform="translate(496,713) scale(5.3216666666667)">
				<rect x="0" y="0" class="st1" width="6" height="6"/>
			</g>
			<g transform="translate(527,713) scale(5.3216666666667)">
				<rect x="0" y="0" class="st1" width="6" height="6"/>
			</g>
			<g transform="translate(620,713) scale(5.3216666666667)">
				<rect x="0" y="0" class="st1" width="6" height="6"/>
			</g>
			<g transform="translate(651,713) scale(5.3216666666667)">
				<rect x="0" y="0" class="st1" width="6" height="6"/>
			</g>
			<g transform="translate(682,713) scale(5.3216666666667)">
				<rect x="0" y="0" class="st1" width="6" height="6"/>
			</g>
			<g transform="translate(806,713) scale(5.3216666666667)">
				<rect x="0" y="0" class="st1" width="6" height="6"/>
			</g>
			<g transform="translate(837,713) scale(5.3216666666667)">
				<rect x="0" y="0" class="st1" width="6" height="6"/>
			</g>
			<g transform="translate(899,713) scale(5.3216666666667)">
				<rect x="0" y="0" class="st1" width="6" height="6"/>
			</g>
			<g transform="translate(930,713) scale(5.3216666666667)">
				<rect x="0" y="0" class="st1" width="6" height="6"/>
			</g>
			<g transform="translate(372,744) scale(5.3216666666667)">
				<rect x="0" y="0" class="st1" width="6" height="6"/>
			</g>
			<g transform="translate(403,744) scale(5.3216666666667)">
				<rect x="0" y="0" class="st1" width="6" height="6"/>
			</g>
			<g transform="translate(527,744) scale(5.3216666666667)">
				<rect x="0" y="0" class="st1" width="6" height="6"/>
			</g>
			<g transform="translate(589,744) scale(5.3216666666667)">
				<rect x="0" y="0" class="st1" width="6" height="6"/>
			</g>
			<g transform="translate(651,744) scale(5.3216666666667)">
				<rect x="0" y="0" class="st1" width="6" height="6"/>
			</g>
			<g transform="translate(682,744) scale(5.3216666666667)">
				<rect x="0" y="0" class="st1" width="6" height="6"/>
			</g>
			<g transform="translate(744,744) scale(5.3216666666667)">
				<rect x="0" y="0" class="st1" width="6" height="6"/>
			</g>
			<g transform="translate(806,744) scale(5.3216666666667)">
				<rect x="0" y="0" class="st1" width="6" height="6"/>
			</g>
			<g transform="translate(341,775) scale(5.3216666666667)">
				<rect x="0" y="0" class="st1" width="6" height="6"/>
			</g>
			<g transform="translate(372,775) scale(5.3216666666667)">
				<rect x="0" y="0" class="st1" width="6" height="6"/>
			</g>
			<g transform="translate(527,775) scale(5.3216666666667)">
				<rect x="0" y="0" class="st1" width="6" height="6"/>
			</g>
			<g transform="translate(589,775) scale(5.3216666666667)">
				<rect x="0" y="0" class="st1" width="6" height="6"/>
			</g>
			<g transform="translate(620,775) scale(5.3216666666667)">
				<rect x="0" y="0" class="st1" width="6" height="6"/>
			</g>
			<g transform="translate(651,775) scale(5.3216666666667)">
				<rect x="0" y="0" class="st1" width="6" height="6"/>
			</g>
			<g transform="translate(682,775) scale(5.3216666666667)">
				<rect x="0" y="0" class="st1" width="6" height="6"/>
			</g>
			<g transform="translate(806,775) scale(5.3216666666667)">
				<rect x="0" y="0" class="st1" width="6" height="6"/>
			</g>
			<g transform="translate(837,775) scale(5.3216666666667)">
				<rect x="0" y="0" class="st1" width="6" height="6"/>
			</g>
			<g transform="translate(899,775) scale(5.3216666666667)">
				<rect x="0" y="0" class="st1" width="6" height="6"/>
			</g>
			<g transform="translate(310,806) scale(5.3216666666667)">
				<rect x="0" y="0" class="st1" width="6" height="6"/>
			</g>
			<g transform="translate(527,806) scale(5.3216666666667)">
				<rect x="0" y="0" class="st1" width="6" height="6"/>
			</g>
			<g transform="translate(589,806) scale(5.3216666666667)">
				<rect x="0" y="0" class="st1" width="6" height="6"/>
			</g>
			<g transform="translate(682,806) scale(5.3216666666667)">
				<rect x="0" y="0" class="st1" width="6" height="6"/>
			</g>
			<g transform="translate(713,806) scale(5.3216666666667)">
				<rect x="0" y="0" class="st1" width="6" height="6"/>
			</g>
			<g transform="translate(744,806) scale(5.3216666666667)">
				<rect x="0" y="0" class="st1" width="6" height="6"/>
			</g>
			<g transform="translate(775,806) scale(5.3216666666667)">
				<rect x="0" y="0" class="st1" width="6" height="6"/>
			</g>
			<g transform="translate(806,806) scale(5.3216666666667)">
				<rect x="0" y="0" class="st1" width="6" height="6"/>
			</g>
			<g transform="translate(837,806) scale(5.3216666666667)">
				<rect x="0" y="0" class="st1" width="6" height="6"/>
			</g>
			<g transform="translate(868,806) scale(5.3216666666667)">
				<rect x="0" y="0" class="st1" width="6" height="6"/>
			</g>
			<g transform="translate(930,806) scale(5.3216666666667)">
				<rect x="0" y="0" class="st1" width="6" height="6"/>
			</g>
			<g transform="translate(310,837) scale(5.3216666666667)">
				<rect x="0" y="0" class="st1" width="6" height="6"/>
			</g>
			<g transform="translate(341,837) scale(5.3216666666667)">
				<rect x="0" y="0" class="st1" width="6" height="6"/>
			</g>
			<g transform="translate(434,837) scale(5.3216666666667)">
				<rect x="0" y="0" class="st1" width="6" height="6"/>
			</g>
			<g transform="translate(496,837) scale(5.3216666666667)">
				<rect x="0" y="0" class="st1" width="6" height="6"/>
			</g>
			<g transform="translate(527,837) scale(5.3216666666667)">
				<rect x="0" y="0" class="st1" width="6" height="6"/>
			</g>
			<g transform="translate(558,837) scale(5.3216666666667)">
				<rect x="0" y="0" class="st1" width="6" height="6"/>
			</g>
			<g transform="translate(620,837) scale(5.3216666666667)">
				<rect x="0" y="0" class="st1" width="6" height="6"/>
			</g>
			<g transform="translate(651,837) scale(5.3216666666667)">
				<rect x="0" y="0" class="st1" width="6" height="6"/>
			</g>
			<g transform="translate(682,837) scale(5.3216666666667)">
				<rect x="0" y="0" class="st1" width="6" height="6"/>
			</g>
			<g transform="translate(713,837) scale(5.3216666666667)">
				<rect x="0" y="0" class="st1" width="6" height="6"/>
			</g>
			<g transform="translate(775,837) scale(5.3216666666667)">
				<rect x="0" y="0" class="st1" width="6" height="6"/>
			</g>
			<g transform="translate(837,837) scale(5.3216666666667)">
				<rect x="0" y="0" class="st1" width="6" height="6"/>
			</g>
			<g transform="translate(868,837) scale(5.3216666666667)">
				<rect x="0" y="0" class="st1" width="6" height="6"/>
			</g>
			<g transform="translate(310,868) scale(5.3216666666667)">
				<rect x="0" y="0" class="st1" width="6" height="6"/>
			</g>
			<g transform="translate(341,868) scale(5.3216666666667)">
				<rect x="0" y="0" class="st1" width="6" height="6"/>
			</g>
			<g transform="translate(403,868) scale(5.3216666666667)">
				<rect x="0" y="0" class="st1" width="6" height="6"/>
			</g>
			<g transform="translate(434,868) scale(5.3216666666667)">
				<rect x="0" y="0" class="st1" width="6" height="6"/>
			</g>
			<g transform="translate(496,868) scale(5.3216666666667)">
				<rect x="0" y="0" class="st1" width="6" height="6"/>
			</g>
			<g transform="translate(527,868) scale(5.3216666666667)">
				<rect x="0" y="0" class="st1" width="6" height="6"/>
			</g>
			<g transform="translate(620,868) scale(5.3216666666667)">
				<rect x="0" y="0" class="st1" width="6" height="6"/>
			</g>
			<g transform="translate(651,868) scale(5.3216666666667)">
				<rect x="0" y="0" class="st1" width="6" height="6"/>
			</g>
			<g transform="translate(682,868) scale(5.3216666666667)">
				<rect x="0" y="0" class="st1" width="6" height="6"/>
			</g>
			<g transform="translate(713,868) scale(5.3216666666667)">
				<rect x="0" y="0" class="st1" width="6" height="6"/>
			</g>
			<g transform="translate(744,868) scale(5.3216666666667)">
				<rect x="0" y="0" class="st1" width="6" height="6"/>
			</g>
			<g transform="translate(775,868) scale(5.3216666666667)">
				<rect x="0" y="0" class="st1" width="6" height="6"/>
			</g>
			<g transform="translate(806,868) scale(5.3216666666667)">
				<rect x="0" y="0" class="st1" width="6" height="6"/>
			</g>
			<g transform="translate(837,868) scale(5.3216666666667)">
				<rect x="0" y="0" class="st1" width="6" height="6"/>
			</g>
			<g transform="translate(868,868) scale(5.3216666666667)">
				<rect x="0" y="0" class="st1" width="6" height="6"/>
			</g>
			<g transform="translate(899,868) scale(5.3216666666667)">
				<rect x="0" y="0" class="st1" width="6" height="6"/>
			</g>
			<g transform="translate(372,899) scale(5.3216666666667)">
				<rect x="0" y="0" class="st1" width="6" height="6"/>
			</g>
			<g transform="translate(465,899) scale(5.3216666666667)">
				<rect x="0" y="0" class="st1" width="6" height="6"/>
			</g>
			<g transform="translate(496,899) scale(5.3216666666667)">
				<rect x="0" y="0" class="st1" width="6" height="6"/>
			</g>
			<g transform="translate(558,899) scale(5.3216666666667)">
				<rect x="0" y="0" class="st1" width="6" height="6"/>
			</g>
			<g transform="translate(651,899) scale(5.3216666666667)">
				<rect x="0" y="0" class="st1" width="6" height="6"/>
			</g>
			<g transform="translate(682,899) scale(5.3216666666667)">
				<rect x="0" y="0" class="st1" width="6" height="6"/>
			</g>
			<g transform="translate(713,899) scale(5.3216666666667)">
				<rect x="0" y="0" class="st1" width="6" height="6"/>
			</g>
			<g transform="translate(806,899) scale(5.3216666666667)">
				<rect x="0" y="0" class="st1" width="6" height="6"/>
			</g>
			<g transform="translate(837,899) scale(5.3216666666667)">
				<rect x="0" y="0" class="st1" width="6" height="6"/>
			</g>
			<g transform="translate(899,899) scale(5.3216666666667)">
				<rect x="0" y="0" class="st1" width="6" height="6"/>
			</g>
			<g transform="translate(372,930) scale(5.3216666666667)">
				<rect x="0" y="0" class="st1" width="6" height="6"/>
			</g>
			<g transform="translate(403,930) scale(5.3216666666667)">
				<rect x="0" y="0" class="st1" width="6" height="6"/>
			</g>
			<g transform="translate(527,930) scale(5.3216666666667)">
				<rect x="0" y="0" class="st1" width="6" height="6"/>
			</g>
			<g transform="translate(558,930) scale(5.3216666666667)">
				<rect x="0" y="0" class="st1" width="6" height="6"/>
			</g>
			<g transform="translate(589,930) scale(5.3216666666667)">
				<rect x="0" y="0" class="st1" width="6" height="6"/>
			</g>
			<g transform="translate(651,930) scale(5.3216666666667)">
				<rect x="0" y="0" class="st1" width="6" height="6"/>
			</g>
			<g transform="translate(806,930) scale(5.3216666666667)">
				<rect x="0" y="0" class="st1" width="6" height="6"/>
			</g>
			<g transform="translate(837,930) scale(5.3216666666667)">
				<rect x="0" y="0" class="st1" width="6" height="6"/>
			</g>
		</g>
	</g>
</mask>
<rect y="0" class="st2" width="1023" height="1023"/>
<g>
	<g transform="translate(62,62)">
		<g transform="scale(15.5)">
			<path d="M0,0v14h14V0H0z M12,12H2V2h10V12z"/>
		</g>
	</g>
	<g transform="translate(124,124)">
		<g transform="scale(15.5)">
			<rect y="0" width="6" height="6"/>
		</g>
	</g>
	<g transform="translate(744,62)">
		<g transform="scale(15.5)">
			<path d="M0,0v14h14V0H0z M12,12H2V2h10V12z"/>
		</g>
	</g>
	<g transform="translate(806,124)">
		<g transform="scale(15.5)">
			<rect y="0" width="6" height="6"/>
		</g>
	</g>
	<g transform="translate(62,744)">
		<g transform="scale(15.5)">
			<path d="M0,0v14h14V0H0z M12,12H2V2h10V12z"/>
		</g>
	</g>
	<g transform="translate(124,806)">
		<g transform="scale(15.5)">
			<rect y="0" width="6" height="6"/>
		</g>
	</g>
</g>
<rect x="374.5" y="372.48" class="st3" width="281.06" height="276.27"/>
<path class="st4" d="M507.7,406.61l-0.1,48.1c0,0-0.07-6.85-3.56-17.21c-1.18-3.49-3.89-10.48-8.96-16.85
	c-8.67-10.89-16.95-13.92-16.95-13.92L507.7,406.61z"/>
<path class="st4" d="M408.17,406.61l0.1,48.1c0,0,0.07-6.85,3.56-17.21c1.18-3.49,3.89-10.48,8.96-16.85
	c8.67-10.89,16.95-13.92,16.95-13.92L408.17,406.61z"/>
<linearGradient id="SVGID_1_" gradientUnits="userSpaceOnUse" x1="477.5691" y1="612.4152" x2="521.5508" y2="574.2672">
	<stop  offset="0.1295" style="stop-color:#66BC53"/>
	<stop  offset="0.2201" style="stop-color:#55AB6B"/>
	<stop  offset="0.4108" style="stop-color:#2881A9"/>
	<stop  offset="0.4626" style="stop-color:#1B75BB"/>
	<stop  offset="0.5199" style="stop-color:#2C6FB6"/>
	<stop  offset="0.6988" style="stop-color:#5D5EA9"/>
	<stop  offset="0.7874" style="stop-color:#7058A4"/>
</linearGradient>
<path class="st5" d="M508.06,608.79l0.08-45.72c0,0-0.1,6.51-4.02,16.34c-1.32,3.31-4.35,9.93-10,15.96
	c-9.65,10.3-18.86,13.13-18.86,13.13L508.06,608.79z"/>
<path class="st4" d="M408.34,609.47l0.09-44.81c0,0,0.06,6.38,3.24,16.03c1.07,3.25,3.53,9.76,8.13,15.69
	c7.87,10.14,15.39,12.96,15.39,12.96L408.34,609.47z"/>
<path class="st6" d="M476.21,523.94l0.35,26.54c0,0-1.68,10.19-5.77,14.77c-5.87,6.56-13.66,6.03-14.17,5.99
	c-1.07-0.09-7.34-0.74-11.72-6.39c-2.76-3.55-4.37-14.17-4.37-14.17s-1.35-11.59-0.89-19.93c0.3-33.93,0.98-59.42,1.42-70.48
	c0.1-2.57,0.36-7.68,3.5-11.58c3.57-4.44,8.96-4.92,12.07-5.19c3.07-0.27,10.8-0.99,15.22,4.59c3.32,4.19,3.32,12.17,3.32,12.17
	l0.35,27.34l32.01-0.2l0.17,36.92L476.21,523.94z"/>
<polygon class="st6" points="556.88,406.61 584.43,540.22 612.51,406.61 "/>
<polygon class="st4" points="541.2,608.79 541.2,481.85 567.18,599.2 600.77,599.5 624.65,483.63 624.65,608.79 "/>
<line class="st7" x1="522.74" y1="608.79" x2="522.74" y2="406.61"/>
</svg>
